<svg id="Layer_1" data-name="Layer 1" xmlns="http://www.w3.org/2000/svg" viewBox="0 0 24 24"><defs><style>.cls-1{fill:#fff;}</style></defs><path class="cls-1" d="M12,1.81A10.19,10.19,0,1,0,22.19,12,10.19,10.19,0,0,0,12,1.81ZM7.47,6.74a.2.2,0,0,1,.2-.2h4a7.76,7.76,0,0,1,3.83.84.2.2,0,0,1-.1.37H7.67a.2.2,0,0,1-.2-.2Zm0,2.42A.19.19,0,0,1,7.67,9h9.39a.19.19,0,0,1,.17.09,4.19,4.19,0,0,1,.39.86.2.2,0,0,1-.19.26H7.67a.2.2,0,0,1-.2-.2Zm8.05,7.45h0a5.24,5.24,0,0,1-1.78.64,13.85,13.85,0,0,1-2.48.2H7.67a.2.2,0,0,1-.2-.2v-.81a.2.2,0,0,1,.2-.2h7.74A.2.2,0,0,1,15.52,16.61Zm1.77-1.92-.14.25A.19.19,0,0,1,17,15H7.67a.19.19,0,0,1-.2-.19V14a.2.2,0,0,1,.2-.2h9.7a.21.21,0,0,1,.19.27Q17.44,14.39,17.29,14.69Zm.62-2.26a.2.2,0,0,1-.2.18h-10a.2.2,0,0,1-.2-.2v-.82a.2.2,0,0,1,.2-.2h10a.21.21,0,0,1,.2.19v.35C17.92,12.1,17.92,12.26,17.91,12.43Z"/></svg>